<?xml version="1.0" encoding="iso-8859-1"?>
<!-- Generator: Adobe Illustrator 19.0.0, SVG Export Plug-In . SVG Version: 6.00 Build 0)  -->
<svg version="1.1" id="Capa_1" xmlns="http://www.w3.org/2000/svg" xmlns:xlink="http://www.w3.org/1999/xlink" x="0px" y="0px"
	 viewBox="0 0 512 512" style="enable-background:new 0 0 512 512;" xml:space="preserve">
<g>
	<g>
		<g>
			<path d="M480,85.333c-17.646,0-32,14.354-32,32V256h-74.667c-17.646,0-32,14.354-32,32s14.354,32,32,32h53.333v85.333h-32
				c-5.896,0-10.667,4.771-10.667,10.667c0,5.896,4.771,10.667,10.667,10.667H480c5.896,0,10.667-4.771,10.667-10.667
				c0-5.896-4.771-10.667-10.667-10.667h-32V320h32c17.646,0,32-14.354,32-32V117.333C512,99.688,497.646,85.333,480,85.333z"/>
			<path d="M138.667,256H64V117.333c0-17.646-14.354-32-32-32s-32,14.354-32,32V288c0,17.646,14.354,32,32,32h32v85.333H32
				c-5.896,0-10.667,4.771-10.667,10.667c0,5.896,4.771,10.667,10.667,10.667h85.333c5.896,0,10.667-4.771,10.667-10.667
				c0-5.896-4.771-10.667-10.667-10.667h-32V320h53.333c17.646,0,32-14.354,32-32S156.313,256,138.667,256z"/>
			<path d="M284.99,243.75c9.333,5.74,19.917,12.25,40.281,12.25c20.365,0,30.948-6.51,40.281-12.25
				c8.26-5.073,14.781-9.083,29.115-9.083c5.896,0,10.667-4.771,10.667-10.667v-32c0-23.531-19.135-42.667-42.667-42.667H149.333
				c-23.531,0-42.667,19.135-42.667,42.667v32c0,5.896,4.771,10.667,10.667,10.667c14.292,0,20.792,4.01,29.031,9.083
				c9.323,5.74,19.885,12.25,40.229,12.25c20.333,0,30.906-6.51,40.229-12.25c5.865-3.611,10.964-6.611,18.51-8.082v169.665h-42.667
				c-5.896,0-10.667,4.771-10.667,10.667c0,5.896,4.771,10.667,10.667,10.667h106.667c5.896,0,10.667-4.771,10.667-10.667
				c0-5.896-4.771-10.667-10.667-10.667h-42.667V235.727C274.094,237.216,279.173,240.178,284.99,243.75z"/>
		</g>
	</g>
</g>
<g>
</g>
<g>
</g>
<g>
</g>
<g>
</g>
<g>
</g>
<g>
</g>
<g>
</g>
<g>
</g>
<g>
</g>
<g>
</g>
<g>
</g>
<g>
</g>
<g>
</g>
<g>
</g>
<g>
</g>
</svg>
